<mxfile host="app.diagrams.net" agent="Mozilla/5.0 (Windows NT 10.0; Win64; x64) AppleWebKit/537.36 (KHTML, like Gecko) Chrome/131.0.0.0 Safari/537.36" version="25.0.3">
  <diagram id="C5RBs43oDa-KdzZeNtuy" name="Page-1">
    <mxGraphModel dx="1420" dy="804" grid="1" gridSize="10" guides="1" tooltips="1" connect="1" arrows="1" fold="1" page="1" pageScale="1" pageWidth="827" pageHeight="1169" math="0" shadow="0">
      <root>
        <mxCell id="WIyWlLk6GJQsqaUBKTNV-0" />
        <mxCell id="WIyWlLk6GJQsqaUBKTNV-1" parent="WIyWlLk6GJQsqaUBKTNV-0" />
        <mxCell id="LFGIQh9opgwjj22BYy4o-5" style="edgeStyle=orthogonalEdgeStyle;rounded=0;orthogonalLoop=1;jettySize=auto;html=1;" edge="1" parent="WIyWlLk6GJQsqaUBKTNV-1" source="LFGIQh9opgwjj22BYy4o-0" target="LFGIQh9opgwjj22BYy4o-4">
          <mxGeometry relative="1" as="geometry" />
        </mxCell>
        <mxCell id="LFGIQh9opgwjj22BYy4o-0" value="Select counter to purchase (button)" style="rounded=1;whiteSpace=wrap;html=1;" vertex="1" parent="WIyWlLk6GJQsqaUBKTNV-1">
          <mxGeometry x="65" y="320" width="120" height="60" as="geometry" />
        </mxCell>
        <mxCell id="LFGIQh9opgwjj22BYy4o-3" style="edgeStyle=orthogonalEdgeStyle;rounded=0;orthogonalLoop=1;jettySize=auto;html=1;entryX=0.5;entryY=0;entryDx=0;entryDy=0;" edge="1" parent="WIyWlLk6GJQsqaUBKTNV-1" source="LFGIQh9opgwjj22BYy4o-1" target="LFGIQh9opgwjj22BYy4o-0">
          <mxGeometry relative="1" as="geometry" />
        </mxCell>
        <mxCell id="LFGIQh9opgwjj22BYy4o-14" style="edgeStyle=orthogonalEdgeStyle;rounded=0;orthogonalLoop=1;jettySize=auto;html=1;entryX=0;entryY=0.5;entryDx=0;entryDy=0;" edge="1" parent="WIyWlLk6GJQsqaUBKTNV-1" source="LFGIQh9opgwjj22BYy4o-1" target="LFGIQh9opgwjj22BYy4o-13">
          <mxGeometry relative="1" as="geometry" />
        </mxCell>
        <mxCell id="LFGIQh9opgwjj22BYy4o-22" style="edgeStyle=orthogonalEdgeStyle;rounded=0;orthogonalLoop=1;jettySize=auto;html=1;entryX=0.5;entryY=1;entryDx=0;entryDy=0;" edge="1" parent="WIyWlLk6GJQsqaUBKTNV-1" source="LFGIQh9opgwjj22BYy4o-1" target="LFGIQh9opgwjj22BYy4o-21">
          <mxGeometry relative="1" as="geometry" />
        </mxCell>
        <mxCell id="LFGIQh9opgwjj22BYy4o-1" value="Begin" style="ellipse;whiteSpace=wrap;html=1;" vertex="1" parent="WIyWlLk6GJQsqaUBKTNV-1">
          <mxGeometry x="65" y="190" width="120" height="80" as="geometry" />
        </mxCell>
        <mxCell id="LFGIQh9opgwjj22BYy4o-2" value="Shop Scene Flow Chart" style="text;html=1;align=center;verticalAlign=middle;resizable=0;points=[];autosize=1;strokeColor=none;fillColor=none;" vertex="1" parent="WIyWlLk6GJQsqaUBKTNV-1">
          <mxGeometry x="50" y="50" width="150" height="30" as="geometry" />
        </mxCell>
        <mxCell id="LFGIQh9opgwjj22BYy4o-7" style="edgeStyle=orthogonalEdgeStyle;rounded=0;orthogonalLoop=1;jettySize=auto;html=1;entryX=0;entryY=0.5;entryDx=0;entryDy=0;" edge="1" parent="WIyWlLk6GJQsqaUBKTNV-1" source="LFGIQh9opgwjj22BYy4o-4" target="LFGIQh9opgwjj22BYy4o-6">
          <mxGeometry relative="1" as="geometry" />
        </mxCell>
        <mxCell id="LFGIQh9opgwjj22BYy4o-10" style="edgeStyle=orthogonalEdgeStyle;rounded=0;orthogonalLoop=1;jettySize=auto;html=1;entryX=0.5;entryY=0;entryDx=0;entryDy=0;" edge="1" parent="WIyWlLk6GJQsqaUBKTNV-1" source="LFGIQh9opgwjj22BYy4o-4" target="LFGIQh9opgwjj22BYy4o-9">
          <mxGeometry relative="1" as="geometry" />
        </mxCell>
        <mxCell id="LFGIQh9opgwjj22BYy4o-4" value="Have enough money" style="rhombus;whiteSpace=wrap;html=1;" vertex="1" parent="WIyWlLk6GJQsqaUBKTNV-1">
          <mxGeometry x="37.5" y="420" width="175" height="80" as="geometry" />
        </mxCell>
        <mxCell id="LFGIQh9opgwjj22BYy4o-6" value="Choose position" style="rounded=1;whiteSpace=wrap;html=1;" vertex="1" parent="WIyWlLk6GJQsqaUBKTNV-1">
          <mxGeometry x="270" y="430" width="120" height="60" as="geometry" />
        </mxCell>
        <mxCell id="LFGIQh9opgwjj22BYy4o-8" value="Yes" style="text;html=1;align=center;verticalAlign=middle;resizable=0;points=[];autosize=1;strokeColor=none;fillColor=none;" vertex="1" parent="WIyWlLk6GJQsqaUBKTNV-1">
          <mxGeometry x="210" y="428" width="40" height="30" as="geometry" />
        </mxCell>
        <mxCell id="LFGIQh9opgwjj22BYy4o-12" style="edgeStyle=orthogonalEdgeStyle;rounded=0;orthogonalLoop=1;jettySize=auto;html=1;entryX=0;entryY=0.5;entryDx=0;entryDy=0;" edge="1" parent="WIyWlLk6GJQsqaUBKTNV-1" source="LFGIQh9opgwjj22BYy4o-9" target="LFGIQh9opgwjj22BYy4o-0">
          <mxGeometry relative="1" as="geometry">
            <Array as="points">
              <mxPoint x="10" y="570" />
              <mxPoint x="10" y="350" />
            </Array>
          </mxGeometry>
        </mxCell>
        <mxCell id="LFGIQh9opgwjj22BYy4o-9" value="Noftification =&amp;gt; Cancel" style="rounded=1;whiteSpace=wrap;html=1;" vertex="1" parent="WIyWlLk6GJQsqaUBKTNV-1">
          <mxGeometry x="65" y="540" width="120" height="60" as="geometry" />
        </mxCell>
        <mxCell id="LFGIQh9opgwjj22BYy4o-11" value="No" style="text;html=1;align=center;verticalAlign=middle;resizable=0;points=[];autosize=1;strokeColor=none;fillColor=none;" vertex="1" parent="WIyWlLk6GJQsqaUBKTNV-1">
          <mxGeometry x="130" y="508" width="40" height="30" as="geometry" />
        </mxCell>
        <mxCell id="LFGIQh9opgwjj22BYy4o-17" style="edgeStyle=orthogonalEdgeStyle;rounded=0;orthogonalLoop=1;jettySize=auto;html=1;entryX=0;entryY=0.5;entryDx=0;entryDy=0;" edge="1" parent="WIyWlLk6GJQsqaUBKTNV-1" source="LFGIQh9opgwjj22BYy4o-13" target="LFGIQh9opgwjj22BYy4o-15">
          <mxGeometry relative="1" as="geometry" />
        </mxCell>
        <mxCell id="LFGIQh9opgwjj22BYy4o-13" value="Reposition" style="rounded=1;whiteSpace=wrap;html=1;" vertex="1" parent="WIyWlLk6GJQsqaUBKTNV-1">
          <mxGeometry x="270" y="200" width="120" height="60" as="geometry" />
        </mxCell>
        <mxCell id="LFGIQh9opgwjj22BYy4o-18" style="edgeStyle=orthogonalEdgeStyle;rounded=0;orthogonalLoop=1;jettySize=auto;html=1;" edge="1" parent="WIyWlLk6GJQsqaUBKTNV-1" source="LFGIQh9opgwjj22BYy4o-15" target="LFGIQh9opgwjj22BYy4o-16">
          <mxGeometry relative="1" as="geometry" />
        </mxCell>
        <mxCell id="LFGIQh9opgwjj22BYy4o-15" value="Choose an existed counter" style="rounded=1;whiteSpace=wrap;html=1;" vertex="1" parent="WIyWlLk6GJQsqaUBKTNV-1">
          <mxGeometry x="450" y="200" width="120" height="60" as="geometry" />
        </mxCell>
        <mxCell id="LFGIQh9opgwjj22BYy4o-19" style="edgeStyle=orthogonalEdgeStyle;rounded=0;orthogonalLoop=1;jettySize=auto;html=1;entryX=1;entryY=1;entryDx=0;entryDy=0;" edge="1" parent="WIyWlLk6GJQsqaUBKTNV-1" source="LFGIQh9opgwjj22BYy4o-16" target="LFGIQh9opgwjj22BYy4o-1">
          <mxGeometry relative="1" as="geometry">
            <Array as="points">
              <mxPoint x="340" y="350" />
              <mxPoint x="340" y="300" />
              <mxPoint x="167" y="300" />
            </Array>
          </mxGeometry>
        </mxCell>
        <mxCell id="LFGIQh9opgwjj22BYy4o-16" value="Choose the second counter to swap[ position" style="rounded=1;whiteSpace=wrap;html=1;" vertex="1" parent="WIyWlLk6GJQsqaUBKTNV-1">
          <mxGeometry x="450" y="320" width="120" height="60" as="geometry" />
        </mxCell>
        <mxCell id="LFGIQh9opgwjj22BYy4o-20" value="End" style="ellipse;whiteSpace=wrap;html=1;" vertex="1" parent="WIyWlLk6GJQsqaUBKTNV-1">
          <mxGeometry x="270" y="80" width="120" height="80" as="geometry" />
        </mxCell>
        <mxCell id="LFGIQh9opgwjj22BYy4o-23" style="edgeStyle=orthogonalEdgeStyle;rounded=0;orthogonalLoop=1;jettySize=auto;html=1;entryX=0;entryY=0.5;entryDx=0;entryDy=0;" edge="1" parent="WIyWlLk6GJQsqaUBKTNV-1" source="LFGIQh9opgwjj22BYy4o-21" target="LFGIQh9opgwjj22BYy4o-20">
          <mxGeometry relative="1" as="geometry" />
        </mxCell>
        <mxCell id="LFGIQh9opgwjj22BYy4o-21" value="Close Button" style="rounded=1;whiteSpace=wrap;html=1;" vertex="1" parent="WIyWlLk6GJQsqaUBKTNV-1">
          <mxGeometry x="65" y="90" width="120" height="60" as="geometry" />
        </mxCell>
      </root>
    </mxGraphModel>
  </diagram>
</mxfile>
